<svg width="89" height="89" viewBox="0 0 89 89" fill="none" xmlns="http://www.w3.org/2000/svg">
<path d="M4.68408 35.4845V44.9396C4.68408 46.8253 4.68408 47.7681 5.26987 48.3538C5.85565 48.9396 6.79847 48.9396 8.68409 48.9396H25.4241C26.122 48.9396 26.471 48.9396 26.7333 49.1293C26.9956 49.319 27.1049 49.6504 27.3235 50.3132L30.8548 61.0212C31.0734 61.684 31.1827 62.0154 31.445 62.2051C31.7073 62.3948 32.0562 62.3948 32.7542 62.3948H56.4851C57.183 62.3948 57.532 62.3948 57.7943 62.2051C58.0566 62.0154 58.1659 61.684 58.3845 61.0212L61.9158 50.3133C62.1344 49.6504 62.2437 49.319 62.506 49.1293C62.7683 48.9396 63.1172 48.9396 63.8152 48.9396H80.5552C82.4408 48.9396 83.3836 48.9396 83.9694 48.3538C84.5552 47.7681 84.5552 46.8253 84.5552 44.9396V35.4845M8.68408 84.214H80.5552C82.4408 84.214 83.3836 84.214 83.9694 83.6282C84.5552 83.0424 84.5552 82.0996 84.5552 80.214V8.21045C84.5552 6.32483 84.5552 5.38202 83.9694 4.79624C83.3836 4.21045 82.4408 4.21045 80.5552 4.21045H8.68408C6.79846 4.21045 5.85565 4.21045 5.26987 4.79624C4.68408 5.38202 4.68408 6.32483 4.68408 8.21045V80.214C4.68408 82.0996 4.68408 83.0424 5.26987 83.6282C5.85565 84.214 6.79846 84.214 8.68408 84.214Z" stroke="#313131" stroke-width="8"/>
</svg>
